name analog
datacolumns 19
datarows 59
range 0.309 0.338
endheader
time	ground_force_vx	ground_force_vy	ground_force_vz	ground_force_px	ground_force_py	ground_force_pz	l_ground_force_vx	l_ground_force_vy	l_ground_force_vz	l_ground_force_px	l_ground_force_py	l_ground_force_pz	ground_torque_x	ground_torque_y	ground_torque_z	l_ground_torque_x	l_ground_torque_y	l_ground_torque_z
0.309	-0.0	-0.0	-0.0	-0.0	-0.0	-0.0	-4.229505062103272	2.549934148788452	-982.2310180664062	-0.0	-0.0	-0.0	-0.0	-0.0	-0.0	269032.28125	6697.91357421875	-3235.74072265625
0.3095	-0.0	-0.0	-0.0	-0.0	-0.0	-0.0	-2.461244821548462	3.019855737686157	-986.137939453125	-0.0	-0.0	-0.0	-0.0	-0.0	-0.0	269888.5625	6590.07177734375	-2813.384765625
0.31	-0.0	-0.0	-0.0	-0.0	-0.0	-0.0	-0.404188334941864	3.963277816772461	-991.873291015625	-0.0	-0.0	-0.0	-0.0	-0.0	-0.0	271367.15625	6530.625	-2400.1875
0.3105	-0.0	-0.0	-0.0	-0.0	-0.0	-0.0	1.7742156982421875	4.416084289550781	-995.4749755859376	-0.0	-0.0	-0.0	-0.0	-0.0	-0.0	272928.9375	6579.0244140625	-2050.001708984375
0.311	-0.0	-0.0	-0.0	-0.0	-0.0	-0.0	1.940654993057251	4.3332295417785645	-999.577880859375	-0.0	-0.0	-0.0	-0.0	-0.0	-0.0	274062.71875	7047.408203125	-2244.6416015625
0.3115	-0.0	-0.0	-0.0	-0.0	-0.0	-0.0	0.3494249582290649	3.797832489013672	-997.9180297851562	-0.0	-0.0	-0.0	-0.0	-0.0	-0.0	274458.84375	7213.052734375	-2822.305908203125
0.312	-0.0	-0.0	-0.0	-0.0	-0.0	-0.0	-1.5295828580856323	3.688105583190918	-998.2244873046876	-0.0	-0.0	-0.0	-0.0	-0.0	-0.0	273771.0	7680.23583984375	-3504.1025390625
0.3125	-0.0	-0.0	-0.0	-0.0	-0.0	-0.0	-2.755367517471313	2.8262939453125	-996.0455322265624	-0.0	-0.0	-0.0	-0.0	-0.0	-0.0	273703.28125	7967.875	-3840.38671875
0.313	-0.0	-0.0	-0.0	-0.0	-0.0	-0.0	-2.7447760105133057	2.2754228115081787	-994.9993896484376	-0.0	-0.0	-0.0	-0.0	-0.0	-0.0	273096.71875	8344.1708984375	-4175.2119140625
0.3135	-0.0	-0.0	-0.0	-0.0	-0.0	-0.0	-2.0664336681365967	1.158570408821106	-993.6033935546876	-0.0	-0.0	-0.0	-0.0	-0.0	-0.0	273215.78125	8326.708984375	-3777.231201171875
0.314	-0.0	-0.0	-0.0	-0.0	-0.0	-0.0	-1.685504913330078	0.9561297297477722	-993.2348022460938	-0.0	-0.0	-0.0	-0.0	-0.0	-0.0	272908.28125	8238.25390625	-3564.0908203125
0.3145	-0.0	-0.0	-0.0	-0.0	-0.0	-0.0	-1.1634080410003662	0.3482251167297363	-990.852294921875	-0.0	-0.0	-0.0	-0.0	-0.0	-0.0	272536.5	7924.2509765625	-3555.32373046875
0.315	-0.0	-0.0	-0.0	-0.0	-0.0	-0.0	-1.5231616497039795	0.2749731242656708	-989.3967895507812	-0.0	-0.0	-0.0	-0.0	-0.0	-0.0	272081.21875	8026.92431640625	-3649.690185546875
0.3155	-0.0	-0.0	-0.0	-0.0	-0.0	-0.0	-3.2872519493103027	0.2600337564945221	-986.760986328125	-0.0	-0.0	-0.0	-0.0	-0.0	-0.0	271874.84375	8264.654296875	-4005.260986328125
0.316	-0.0	-0.0	-0.0	-0.0	-0.0	-0.0	-5.332467555999756	0.8095612525939941	-985.4025268554688	-0.0	-0.0	-0.0	-0.0	-0.0	-0.0	271330.0625	8351.548828125	-4486.140625
0.3165	-0.0	-0.0	-0.0	-0.0	-0.0	-0.0	-6.811319828033447	1.2413350343704224	-984.1820068359376	-0.0	-0.0	-0.0	-0.0	-0.0	-0.0	270703.84375	8666.896484375	-4716.24267578125
0.317	-0.0	-0.0	-0.0	-0.0	-0.0	-0.0	-7.180795669555664	2.184258460998535	-982.456298828125	-0.0	-0.0	-0.0	-0.0	-0.0	-0.0	269472.9375	8752.8271484375	-4792.552734375
0.3175	-0.0	-0.0	-0.0	-0.0	-0.0	-0.0	-6.447466850280762	1.864187240600586	-978.6533813476562	-0.0	-0.0	-0.0	-0.0	-0.0	-0.0	268670.96875	8740.451171875	-4238.14990234375
0.318	-0.0	-0.0	-0.0	-0.0	-0.0	-0.0	-5.135834217071533	1.352875828742981	-976.9077758789062	-0.0	-0.0	-0.0	-0.0	-0.0	-0.0	267926.90625	8634.884765625	-3498.955078125
0.3185	-0.0	-0.0	-0.0	-0.0	-0.0	-0.0	-2.8618485927581787	1.4876673221588137	-975.2349853515624	-0.0	-0.0	-0.0	-0.0	-0.0	-0.0	267640.375	8579.576171875	-2790.0771484375
0.319	-0.0	-0.0	-0.0	-0.0	-0.0	-0.0	-1.5967941284179688	1.7573474645614624	-975.8787841796876	-0.0	-0.0	-0.0	-0.0	-0.0	-0.0	267031.9375	8612.50390625	-2308.380859375
0.3195	-0.0	-0.0	-0.0	-0.0	-0.0	-0.0	-0.7939071655273438	1.612141489982605	-974.1507568359376	-0.0	-0.0	-0.0	-0.0	-0.0	-0.0	266778.125	9033.935546875	-1859.9813232421875
0.32	-0.0	-0.0	-0.0	-0.0	-0.0	-0.0	-0.3415006101131439	1.7797176837921145	-973.7838134765624	-0.0	-0.0	-0.0	-0.0	-0.0	-0.0	266181.125	8951.3740234375	-1514.14404296875
0.3205	-0.0	-0.0	-0.0	-0.0	-0.0	-0.0	-0.4215222895145416	1.5722423791885376	-970.7108764648438	-0.0	-0.0	-0.0	-0.0	-0.0	-0.0	265398.21875	9109.1552734375	-1361.4993896484375
0.321	-0.0	-0.0	-0.0	-0.0	-0.0	-0.0	-0.4868674278259277	0.437296062707901	-969.593994140625	-0.0	-0.0	-0.0	-0.0	-0.0	-0.0	264582.65625	9410.5673828125	-1240.3314208984375
0.3215	-0.0	-0.0	-0.0	-0.0	-0.0	-0.0	-0.7941069006919861	-0.2735077142715454	-967.4653930664062	-0.0	-0.0	-0.0	-0.0	-0.0	-0.0	263369.46875	9221.333984375	-1123.56396484375
0.322	-0.0	-0.0	-0.0	-0.0	-0.0	-0.0	-0.9758186340332032	-0.988392174243927	-961.6468505859376	-0.0	-0.0	-0.0	-0.0	-0.0	-0.0	262150.75	9614.19921875	-1070.265625
0.3225	-0.0	-0.0	-0.0	-0.0	-0.0	-0.0	-1.512240290641785	-1.4379795789718628	-959.7686767578124	-0.0	-0.0	-0.0	-0.0	-0.0	-0.0	260797.484375	9655.86328125	-1158.3382568359375
0.323	-0.0	-0.0	-0.0	-0.0	-0.0	-0.0	-2.221885681152344	-1.585692286491394	-957.3413696289062	-0.0	-0.0	-0.0	-0.0	-0.0	-0.0	260086.96875	9771.4951171875	-1456.8973388671875
0.3235	-0.0	-0.0	-0.0	-0.0	-0.0	-0.0	-2.701742887496948	-1.7543611526489258	-956.0408325195312	-0.0	-0.0	-0.0	-0.0	-0.0	-0.0	259708.21875	9921.8955078125	-1745.7874755859375
0.324	-0.0	-0.0	-0.0	-0.0	-0.0	-0.0	-4.003934383392334	-1.5739282369613647	-954.2940063476562	-0.0	-0.0	-0.0	-0.0	-0.0	-0.0	260006.171875	9733.1396484375	-2015.07470703125
0.3245	-0.0	-0.0	-0.0	-0.0	-0.0	-0.0	-4.443423271179199	-0.7988199591636658	-956.0237426757812	-0.0	-0.0	-0.0	-0.0	-0.0	-0.0	259856.078125	9201.2646484375	-2315.840087890625
0.325	-0.0	-0.0	-0.0	-0.0	-0.0	-0.0	-4.165539741516113	-0.0883216857910156	-959.362060546875	-0.0	-0.0	-0.0	-0.0	-0.0	-0.0	260458.890625	9318.361328125	-2316.77978515625
0.3255	-0.0	-0.0	-0.0	-0.0	-0.0	-0.0	-4.088314056396484	-0.172851100564003	-960.5010986328124	-0.0	-0.0	-0.0	-0.0	-0.0	-0.0	260544.671875	9087.7724609375	-2603.197509765625
0.326	-0.0	-0.0	-0.0	-0.0	-0.0	-0.0	-4.520481586456299	-0.6182518005371094	-960.51611328125	-0.0	-0.0	-0.0	-0.0	-0.0	-0.0	260695.640625	8770.6005859375	-2500.19189453125
0.3265	-0.0	-0.0	-0.0	-0.0	-0.0	-0.0	-4.794075965881348	-1.6081773042678833	-959.832275390625	-0.0	-0.0	-0.0	-0.0	-0.0	-0.0	260807.640625	8762.7119140625	-2763.808837890625
0.327	-0.0	-0.0	-0.0	-0.0	-0.0	-0.0	-5.159835815429688	-2.730699062347412	-959.4542236328124	-0.0	-0.0	-0.0	-0.0	-0.0	-0.0	260869.46875	8684.21875	-2880.5537109375
0.3275	-0.0	-0.0	-0.0	-0.0	-0.0	-0.0	-5.6595988273620605	-3.183143377304077	-956.9822998046876	-0.0	-0.0	-0.0	-0.0	-0.0	-0.0	260285.375	8946.81640625	-2911.909423828125
0.328	-0.0	-0.0	-0.0	-0.0	-0.0	-0.0	-5.6845293045043945	-3.4550583362579346	-953.9237670898438	-0.0	-0.0	-0.0	-0.0	-0.0	-0.0	259139.03125	9005.1416015625	-3000.988525390625
0.3285	-0.0	-0.0	-0.0	-0.0	-0.0	-0.0	-5.950578689575195	-3.628114700317383	-952.4308471679688	-0.0	-0.0	-0.0	-0.0	-0.0	-0.0	258410.890625	9155.416015625	-2945.3828125
0.329	-0.0	-0.0	-0.0	-0.0	-0.0	-0.0	-5.585376262664795	-4.225888252258301	-947.6109008789062	-0.0	-0.0	-0.0	-0.0	-0.0	-0.0	257450.28125	9237.169921875	-2916.67333984375
0.3295	-0.0	-0.0	-0.0	-0.0	-0.0	-0.0	-5.677490234375	-3.994459629058838	-943.4208984375	-0.0	-0.0	-0.0	-0.0	-0.0	-0.0	255786.53125	9513.1357421875	-2907.65380859375
0.33	-0.0	-0.0	-0.0	-0.0	-0.0	-0.0	-4.981020450592041	-4.157698631286621	-937.1099243164062	-0.0	-0.0	-0.0	-0.0	-0.0	-0.0	254272.671875	9153.8076171875	-2671.04736328125
0.3305	-0.0	-0.0	-0.0	-0.0	-0.0	-0.0	-4.254888534545898	-4.053152561187744	-931.5238037109376	-0.0	-0.0	-0.0	-0.0	-0.0	-0.0	252411.96875	8901.6796875	-2464.01123046875
0.331	-0.0	-0.0	-0.0	-0.0	-0.0	-0.0	-3.336125373840332	-3.6369762420654297	-925.6134033203124	-0.0	-0.0	-0.0	-0.0	-0.0	-0.0	251326.125	8728.6923828125	-2082.960693359375
0.3315	-0.0	-0.0	-0.0	-0.0	-0.0	-0.0	-1.8660240173339844	-4.056629657745361	-924.7928466796876	-0.0	-0.0	-0.0	-0.0	-0.0	-0.0	250290.21875	8568.7177734375	-1727.0150146484375
0.332	-0.0	-0.0	-0.0	-0.0	-0.0	-0.0	-2.303425073623657	-4.76328706741333	-921.712158203125	-0.0	-0.0	-0.0	-0.0	-0.0	-0.0	249746.640625	8248.8525390625	-1786.77734375
0.3325	-0.0	-0.0	-0.0	-0.0	-0.0	-0.0	-3.2026326656341557	-4.071802616119385	-921.7720947265624	-0.0	-0.0	-0.0	-0.0	-0.0	-0.0	250220.765625	8078.87451171875	-2018.450439453125
0.333	-0.0	-0.0	-0.0	-0.0	-0.0	-0.0	-5.056514739990234	-3.532867431640625	-922.1441040039062	-0.0	-0.0	-0.0	-0.0	-0.0	-0.0	250277.109375	8036.7041015625	-2637.71142578125
0.3335	-0.0	-0.0	-0.0	-0.0	-0.0	-0.0	-7.008152008056641	-2.2848215103149414	-923.1454467773438	-0.0	-0.0	-0.0	-0.0	-0.0	-0.0	250800.609375	7711.611328125	-3005.50927734375
0.334	-0.0	-0.0	-0.0	-0.0	-0.0	-0.0	-8.871078491210938	-0.9658831357955932	-924.9137573242188	-0.0	-0.0	-0.0	-0.0	-0.0	-0.0	251763.875	7944.81591796875	-3800.702392578125
0.3345	-0.0	-0.0	-0.0	-0.0	-0.0	-0.0	-9.758186340332031	0.5216709971427917	-925.9718627929688	-0.0	-0.0	-0.0	-0.0	-0.0	-0.0	252610.984375	7959.69287109375	-4070.78076171875
0.335	-0.0	-0.0	-0.0	-0.0	-0.0	-0.0	-10.81188678741455	0.985015869140625	-928.0237426757812	-0.0	-0.0	-0.0	-0.0	-0.0	-0.0	252646.953125	7736.2333984375	-4457.95068359375
0.3355	-0.0	-0.0	-0.0	-0.0	-0.0	-0.0	-10.919326782226562	1.5897903442382812	-925.6320190429688	-0.0	-0.0	-0.0	-0.0	-0.0	-0.0	252161.765625	7778.8828125	-4463.1318359375
0.336	-0.0	-0.0	-0.0	-0.0	-0.0	-0.0	-10.640111923217772	1.498888611793518	-924.1941528320312	-0.0	-0.0	-0.0	-0.0	-0.0	-0.0	251645.34375	7438.0712890625	-4393.1318359375
0.3365	-0.0	-0.0	-0.0	-0.0	-0.0	-0.0	-9.750535011291504	0.620790958404541	-922.7876586914062	-0.0	-0.0	-0.0	-0.0	-0.0	-0.0	251419.21875	7363.923828125	-4158.03662109375
0.337	-0.0	-0.0	-0.0	-0.0	-0.0	-0.0	-9.666999816894531	0.1643208265304565	-919.3648681640624	-0.0	-0.0	-0.0	-0.0	-0.0	-0.0	250383.953125	7081.9775390625	-4133.44580078125
0.3375	-0.0	-0.0	-0.0	-0.0	-0.0	-0.0	-10.117863655090332	-0.3677264451980591	-914.7581787109376	-0.0	-0.0	-0.0	-0.0	-0.0	-0.0	248763.359375	6952.32666015625	-4424.806640625
0.338	-0.0	-0.0	-0.0	-0.0	-0.0	-0.0	-10.654796600341797	-1.1387208700180054	-909.521240234375	-0.0	-0.0	-0.0	-0.0	-0.0	-0.0	246948.5	7089.45556640625	-4369.27490234375
